<?xml version="1.0" encoding="iso-8859-1"?>
<!-- Generator: Adobe Illustrator 19.0.0, SVG Export Plug-In . SVG Version: 6.00 Build 0)  -->
<svg version="1.1" id="Capa_1" xmlns="http://www.w3.org/2000/svg" xmlns:xlink="http://www.w3.org/1999/xlink" x="0px" y="0px"
	 viewBox="0 0 512.001 512.001" style="enable-background:new 0 0 512.001 512.001;" xml:space="preserve">
<g>
	<g>
		<path d="M490.521,232.918c-2.229-13.333-22.333-131.208-44.313-164.167c-26.583-39.885-79.833-60.979-101.5-68.198
			c-5.542-1.854-11.625,1.156-13.5,6.74C322.105,34.605,294.688,64.001,256,64.001s-66.104-29.396-75.208-56.708
			c-1.875-5.604-7.896-8.604-13.5-6.74c-21.667,7.219-74.917,28.313-101.5,68.198C43.813,101.709,23.709,219.584,21.48,232.918
			c-0.771,4.615,1.563,9.198,5.75,11.292c0.958,0.479,23.979,11.792,58.104,11.792c7.271,0,14.521-0.51,21.333-1.458v225.458
			c0,3.563,1.792,6.896,4.75,8.875c1.417,0.948,35.938,23.125,144.583,23.125s143.167-22.177,144.583-23.125
			c2.958-1.979,4.75-5.313,4.75-8.875V254.522c7.042,0.979,14.188,1.479,21.333,1.479c34.125,0,57.146-11.313,58.104-11.792
			C488.959,242.116,491.292,237.532,490.521,232.918z M170.667,198.407c0-5.896,4.771-10.667,10.667-10.667
			c5.896,0,10.667,4.771,10.667,10.667v38.396c0,5.896-4.771,10.667-10.667,10.667c-5.896,0-10.667-4.771-10.667-10.667V198.407z
			 M170.667,275.209c0-5.896,4.771-10.667,10.667-10.667c5.896,0,10.667,4.771,10.667,10.667v38.396
			c0,5.896-4.771,10.667-10.667,10.667c-5.896,0-10.667-4.771-10.667-10.667V275.209z M202.667,384.001h-21.333
			c-5.896,0-10.667-4.771-10.667-10.667v-21.333c0-5.896,4.771-10.667,10.667-10.667c5.896,0,10.667,4.771,10.667,10.667v10.667
			h10.667c5.896,0,10.667,4.771,10.667,10.667C213.334,379.23,208.563,384.001,202.667,384.001z M202.667,149.334H192v10.667
			c0,5.896-4.771,10.667-10.667,10.667c-5.896,0-10.667-4.771-10.667-10.667v-21.333c0-5.896,4.771-10.667,10.667-10.667h21.333
			c5.896,0,10.667,4.771,10.667,10.667S208.563,149.334,202.667,149.334z M273.771,384.001h-35.563
			c-5.896,0-10.667-4.771-10.667-10.667c0-5.896,4.771-10.667,10.667-10.667h35.563c5.896,0,10.667,4.771,10.667,10.667
			C284.438,379.23,279.667,384.001,273.771,384.001z M273.792,149.334H238.23c-5.896,0-10.667-4.771-10.667-10.667
			s4.771-10.667,10.667-10.667h35.563c5.896,0,10.667,4.771,10.667,10.667S279.688,149.334,273.792,149.334z M341.334,373.334
			c0,5.896-4.771,10.667-10.667,10.667h-21.333c-5.896,0-10.667-4.771-10.667-10.667c0-5.896,4.771-10.667,10.667-10.667H320
			v-10.667c0-5.896,4.771-10.667,10.667-10.667c5.896,0,10.667,4.771,10.667,10.667V373.334z M341.334,313.595
			c0,5.896-4.771,10.667-10.667,10.667c-5.896,0-10.667-4.771-10.667-10.667v-38.396c0-5.896,4.771-10.667,10.667-10.667
			c5.896,0,10.667,4.771,10.667,10.667V313.595z M341.334,236.793c0,5.896-4.771,10.667-10.667,10.667
			c-5.896,0-10.667-4.771-10.667-10.667v-38.396c0-5.896,4.771-10.667,10.667-10.667c5.896,0,10.667,4.771,10.667,10.667V236.793z
			 M341.334,160.001c0,5.896-4.771,10.667-10.667,10.667c-5.896,0-10.667-4.771-10.667-10.667v-10.667h-10.667
			c-5.896,0-10.667-4.771-10.667-10.667s4.771-10.667,10.667-10.667h21.333c5.896,0,10.667,4.771,10.667,10.667V160.001z"/>
	</g>
</g>
<g>
</g>
<g>
</g>
<g>
</g>
<g>
</g>
<g>
</g>
<g>
</g>
<g>
</g>
<g>
</g>
<g>
</g>
<g>
</g>
<g>
</g>
<g>
</g>
<g>
</g>
<g>
</g>
<g>
</g>
</svg>
